<?xml version="1.0" encoding="UTF-8" standalone="no"?>
<svg
   xmlns:dc="http://purl.org/dc/elements/1.1/"
   xmlns:cc="http://creativecommons.org/ns#"
   xmlns:rdf="http://www.w3.org/1999/02/22-rdf-syntax-ns#"
   xmlns:svg="http://www.w3.org/2000/svg"
   xmlns="http://www.w3.org/2000/svg"
   xmlns:xlink="http://www.w3.org/1999/xlink"
   xmlns:sodipodi="http://sodipodi.sourceforge.net/DTD/sodipodi-0.dtd"
   xmlns:inkscape="http://www.inkscape.org/namespaces/inkscape"
   sodipodi:docname="logo.svg"
   inkscape:version="1.0 (4035a4fb49, 2020-05-01)"
   id="svg8"
   version="1.1"
   viewBox="0 0 285.74999 285.75001"
   height="1080"
   width="1080">
  <defs
     id="defs2">
    <linearGradient
       id="linearGradient76"
       inkscape:collect="always">
      <stop
         id="stop72"
         offset="0"
         style="stop-color:#0000ff;stop-opacity:1;" />
      <stop
         id="stop74"
         offset="1"
         style="stop-color:#000080;stop-opacity:1" />
    </linearGradient>
    <linearGradient
       inkscape:collect="always"
       id="linearGradient66">
      <stop
         style="stop-color:#0000ff;stop-opacity:1"
         offset="0"
         id="stop62" />
      <stop
         style="stop-color:#000080;stop-opacity:1"
         offset="1"
         id="stop64" />
    </linearGradient>
    <linearGradient
       id="linearGradient50"
       inkscape:collect="always">
      <stop
         id="stop46"
         offset="0"
         style="stop-color:#0000ff;stop-opacity:1" />
      <stop
         id="stop48"
         offset="1"
         style="stop-color:#ffffff;stop-opacity:1" />
    </linearGradient>
    <linearGradient
       gradientUnits="userSpaceOnUse"
       y2="750.18811"
       x2="538.65808"
       y1="443.06042"
       x1="424.45175"
       id="linearGradient52"
       xlink:href="#linearGradient50"
       inkscape:collect="always" />
    <linearGradient
       gradientUnits="userSpaceOnUse"
       y2="145.25627"
       x2="112.9771"
       y1="119.73317"
       x1="144.12904"
       id="linearGradient60"
       xlink:href="#linearGradient66"
       inkscape:collect="always" />
    <linearGradient
       gradientTransform="translate(-0.13914129,-0.08268229)"
       gradientUnits="userSpaceOnUse"
       y2="128.52991"
       x2="75.770912"
       y1="160.22714"
       x1="109.74951"
       id="linearGradient78"
       xlink:href="#linearGradient76"
       inkscape:collect="always" />
    <linearGradient
       y2="145.25627"
       x2="112.9771"
       y1="119.73317"
       x1="144.12904"
       gradientUnits="userSpaceOnUse"
       id="linearGradient93"
       xlink:href="#linearGradient66"
       inkscape:collect="always" />
  </defs>
  <sodipodi:namedview
     units="px"
     inkscape:window-maximized="0"
     inkscape:window-y="0"
     inkscape:window-x="0"
     inkscape:window-height="728"
     inkscape:window-width="1350"
     inkscape:snap-center="true"
     inkscape:snap-object-midpoints="true"
     showgrid="false"
     inkscape:document-rotation="0"
     inkscape:current-layer="layer1"
     inkscape:document-units="mm"
     inkscape:cy="125.544"
     inkscape:cx="108.97874"
     inkscape:zoom="1.0684127"
     inkscape:pageshadow="2"
     inkscape:pageopacity="0.0"
     borderopacity="1.0"
     bordercolor="#666666"
     pagecolor="#ffffff"
     id="base" />
  <metadata
     id="metadata5">
    <rdf:RDF>
      <cc:Work
         rdf:about="">
        <dc:format>image/svg+xml</dc:format>
        <dc:type
           rdf:resource="http://purl.org/dc/dcmitype/StillImage" />
        <dc:title></dc:title>
      </cc:Work>
    </rdf:RDF>
  </metadata>
  <g
     id="layer1"
     inkscape:groupmode="layer"
     inkscape:label="Layer 1">
    <g
       inkscape:export-ydpi="96"
       inkscape:export-xdpi="96"
       inkscape:export-filename="C:\Walisson Rodrigo Projects\Turbi\desafio\todolist_project_manager\public\logo192.png"
       transform="scale(0.17777778)"
       id="g127">
      <rect
         ry="142.875"
         style="fill:#e6e6e6;stroke:none;stroke-width:0.462062"
         id="rect89"
         width="285.75"
         height="285.75"
         x="-2.8421709e-14"
         y="-2.8421709e-14" />
      <g
         id="g87"
         transform="matrix(1.905,0,0,1.905,-38.998911,-134.58878)">
        <path
           transform="scale(0.26458333)"
           d="m 371.90234,343.3457 a 207.14285,207.14285 0 0 0 -207.14453,207.14453 207.14285,207.14285 0 0 0 207.14453,207.14258 207.14285,207.14285 0 0 0 89.01563,-20.10156 l -32.92774,-45.19727 a 152.53303,152.53303 0 0 1 -56.08789,10.6875 152.53303,152.53303 0 0 1 -152.5332,-152.53125 152.53303,152.53303 0 0 1 152.5332,-152.5332 152.53303,152.53303 0 0 1 129.95704,72.68164 l 41.25,-36.75 A 207.14285,207.14285 0 0 0 371.90234,343.3457 Z"
           style="fill:url(#linearGradient52);fill-opacity:1;fill-rule:evenodd;stroke:none;stroke-width:0.999999"
           id="path10" />
        <path
           sodipodi:nodetypes="cccccsc"
           d="m 135.17962,105.01775 c 2.5638,2.09219 7.62567,7.65013 11.31041,14.29315 1.46916,2.6209 1.10361,6.00882 -1.43843,8.34631 L 109.74951,160.22714 96.898941,146.61369 128.5839,118.28744 c 2.49068,-2.22666 6.61947,-6.88102 6.59572,-13.26969 z"
           style="fill:url(#linearGradient93);fill-opacity:1;stroke-width:0.264583"
           id="rect31" />
        <path
           id="path68"
           style="fill:url(#linearGradient78);fill-opacity:1;stroke:none;stroke-width:0.264583"
           d="m 119.0996,151.60127 c -14.85584,14.17044 -15.87739,15.4311 -28.872361,4.09472 0,0 -4.733135,-4.84338 -11.109032,-11.08664 -6.375897,-6.24326 -7.402162,-11.06029 -2.413108,-15.31395 4.989054,-4.25366 10.834397,0.21181 16.019664,5.56669 5.185267,5.35488 8.116817,8.30742 8.116817,8.30742 5.40665,5.67832 9.99846,8.40874 18.25802,8.43176 z"
           sodipodi:nodetypes="cczzzcc" />
      </g>
      <circle
         id="path91"
         style="fill:#b3b3b3;stroke:#000000;stroke-width:0.50403"
         cx="142.875"
         cy="142.875"
         r="0.094204232" />
    </g>
  </g>
</svg>
