<?xml version="1.0" encoding="UTF-8"?>
<svg width="192" height="192" version="1.1" viewBox="0 0 50.8 50.8" xmlns="http://www.w3.org/2000/svg" xmlns:xlink="http://www.w3.org/1999/xlink">
 <defs>
  <linearGradient id="c" x1="424.45" x2="538.66" y1="443.06" y2="750.19" gradientUnits="userSpaceOnUse">
   <stop stop-color="#00f" offset="0"/>
   <stop stop-color="#fff" offset="1"/>
  </linearGradient>
  <linearGradient id="b" x1="109.75" x2="75.771" y1="160.23" y2="128.53" gradientTransform="translate(-.13914 -.082682)" gradientUnits="userSpaceOnUse">
   <stop stop-color="#00f" offset="0"/>
   <stop stop-color="#000080" offset="1"/>
  </linearGradient>
  <linearGradient id="a" x1="144.13" x2="112.98" y1="119.73" y2="145.26" gradientUnits="userSpaceOnUse">
   <stop stop-color="#00f" offset="0"/>
   <stop stop-color="#000080" offset="1"/>
  </linearGradient>
 </defs>
 <g transform="scale(.17778)">
  <rect x="-2.8422e-14" y="-2.8422e-14" width="285.75" height="285.75" ry="142.88" fill="#e6e6e6"/>
  <g transform="matrix(1.905 0 0 1.905 -38.999 -134.59)">
   <path transform="scale(.26458)" d="m371.9 343.35a207.14 207.14 0 0 0-207.14 207.14 207.14 207.14 0 0 0 207.14 207.14 207.14 207.14 0 0 0 89.016-20.102l-32.928-45.197a152.53 152.53 0 0 1-56.088 10.688 152.53 152.53 0 0 1-152.53-152.53 152.53 152.53 0 0 1 152.53-152.53 152.53 152.53 0 0 1 129.96 72.682l41.25-36.75a207.14 207.14 0 0 0-171.21-90.543z" fill="url(#c)" fill-rule="evenodd"/>
   <path d="m135.18 105.02c2.5638 2.0922 7.6257 7.6501 11.31 14.293 1.4692 2.6209 1.1036 6.0088-1.4384 8.3463l-35.302 32.57-12.851-13.613 31.685-28.326c2.4907-2.2267 6.6195-6.881 6.5957-13.27z" fill="url(#a)" stroke-width=".26458"/>
   <path d="m119.1 151.6c-14.856 14.17-15.877 15.431-28.872 4.0947 0 0-4.7331-4.8434-11.109-11.087s-7.4022-11.06-2.4131-15.314 10.834 0.21181 16.02 5.5667 8.1168 8.3074 8.1168 8.3074c5.4066 5.6783 9.9985 8.4087 18.258 8.4318z" fill="url(#b)"/>
  </g>
  <circle cx="142.88" cy="142.88" r=".094204" fill="#b3b3b3" stroke="#000" stroke-width=".50403"/>
 </g>
</svg>
